<svg width="62" height="62" viewBox="0 0 62 62" fill="none" xmlns="http://www.w3.org/2000/svg">
    <rect width="62" height="62" rx="31" fill="#F96250" fill-opacity="0.12"/>
    <path d="M45.3606 20.2807C42.8115 20.0273 40.2623 19.8373 37.6973 19.6948V19.679L37.349 17.6207C37.1115 16.164 36.7631 13.979 33.0581 13.979H28.9098C25.2206 13.979 24.8723 16.069 24.619 17.6048L24.2865 19.6315C22.814 19.7265 21.3415 19.8215 19.869 19.964L16.639 20.2807C15.974 20.344 15.499 20.9298 15.5623 21.579C15.6256 22.2282 16.1956 22.7032 16.8606 22.6398L20.0906 22.3232C28.3873 21.4998 36.7473 21.8165 45.139 22.6557C45.1865 22.6557 45.2181 22.6557 45.2656 22.6557C45.8673 22.6557 46.3898 22.1965 46.4531 21.579C46.5006 20.9298 46.0256 20.344 45.3606 20.2807Z" fill="#FF4818"/>
    <path opacity="0.3991" d="M42.4473 24.8885C42.0673 24.4927 41.5448 24.271 41.0064 24.271H20.9931C20.4548 24.271 19.9164 24.4927 19.5523 24.8885C19.1881 25.2843 18.9823 25.8227 19.0139 26.3768L19.9956 42.6218C20.1698 45.0285 20.3914 48.0368 25.9173 48.0368H36.0823C41.6081 48.0368 41.8298 45.0443 42.0039 42.6218L42.9856 26.3927C43.0173 25.8227 42.8114 25.2843 42.4473 24.8885Z" fill="#FF4818"/>
    <path fill-rule="evenodd" clip-rule="evenodd" d="M27.1685 38.9165C27.1685 38.2607 27.7001 37.729 28.356 37.729H33.6285C34.2843 37.729 34.816 38.2607 34.816 38.9165C34.816 39.5723 34.2843 40.104 33.6285 40.104H28.356C27.7001 40.104 27.1685 39.5723 27.1685 38.9165Z" fill="#FF4818"/>
    <path fill-rule="evenodd" clip-rule="evenodd" d="M25.854 32.5835C25.854 31.9277 26.3857 31.396 27.0415 31.396H34.9582C35.614 31.396 36.1457 31.9277 36.1457 32.5835C36.1457 33.2393 35.614 33.771 34.9582 33.771H27.0415C26.3857 33.771 25.854 33.2393 25.854 32.5835Z" fill="#FF4818"/>
</svg>
