<svg width="28" height="28" viewBox="0 0 28 28" fill="none" xmlns="http://www.w3.org/2000/svg">
    <path d="M25.6668 24.792H2.3335C1.85516 24.792 1.4585 25.1887 1.4585 25.667C1.4585 26.1453 1.85516 26.542 2.3335 26.542H25.6668C26.1452 26.542 26.5418 26.1453 26.5418 25.667C26.5418 25.1887 26.1452 24.792 25.6668 24.792Z" fill="#8152DE"/>
    <path opacity="0.4" d="M19.8333 2.33301H8.16667C4.66667 2.33301 3.5 4.42134 3.5 6.99967V25.6663H24.5V6.99967C24.5 4.42134 23.3333 2.33301 19.8333 2.33301Z" fill="#8152DE"/>
    <path d="M11.6665 20.125H8.1665C7.68817 20.125 7.2915 19.7283 7.2915 19.25C7.2915 18.7717 7.68817 18.375 8.1665 18.375H11.6665C12.1448 18.375 12.5415 18.7717 12.5415 19.25C12.5415 19.7283 12.1448 20.125 11.6665 20.125Z" fill="#8152DE"/>
    <path d="M19.8335 20.125H16.3335C15.8552 20.125 15.4585 19.7283 15.4585 19.25C15.4585 18.7717 15.8552 18.375 16.3335 18.375H19.8335C20.3118 18.375 20.7085 18.7717 20.7085 19.25C20.7085 19.7283 20.3118 20.125 19.8335 20.125Z" fill="#8152DE"/>
    <path d="M11.6665 14.875H8.1665C7.68817 14.875 7.2915 14.4783 7.2915 14C7.2915 13.5217 7.68817 13.125 8.1665 13.125H11.6665C12.1448 13.125 12.5415 13.5217 12.5415 14C12.5415 14.4783 12.1448 14.875 11.6665 14.875Z" fill="#8152DE"/>
    <path d="M19.8335 14.875H16.3335C15.8552 14.875 15.4585 14.4783 15.4585 14C15.4585 13.5217 15.8552 13.125 16.3335 13.125H19.8335C20.3118 13.125 20.7085 13.5217 20.7085 14C20.7085 14.4783 20.3118 14.875 19.8335 14.875Z" fill="#8152DE"/>
    <path d="M11.6665 9.625H8.1665C7.68817 9.625 7.2915 9.22833 7.2915 8.75C7.2915 8.27167 7.68817 7.875 8.1665 7.875H11.6665C12.1448 7.875 12.5415 8.27167 12.5415 8.75C12.5415 9.22833 12.1448 9.625 11.6665 9.625Z" fill="#8152DE"/>
    <path d="M19.8335 9.625H16.3335C15.8552 9.625 15.4585 9.22833 15.4585 8.75C15.4585 8.27167 15.8552 7.875 16.3335 7.875H19.8335C20.3118 7.875 20.7085 8.27167 20.7085 8.75C20.7085 9.22833 20.3118 9.625 19.8335 9.625Z" fill="#8152DE"/>
</svg>
