<svg width="28" height="28" viewBox="0 0 28 28" fill="none" xmlns="http://www.w3.org/2000/svg">
    <path opacity="0.4" d="M24.0568 9.85866C22.8318 4.46866 18.1301 2.04199 14.0001 2.04199C14.0001 2.04199 14.0001 2.04199 13.9884 2.04199C9.87011 2.04199 5.15678 4.45699 3.93178 9.84699C2.56678 15.867 6.25344 20.9653 9.59011 24.1737C10.8268 25.3637 12.4134 25.9587 14.0001 25.9587C15.5868 25.9587 17.1734 25.3637 18.3984 24.1737C21.7351 20.9653 25.4218 15.8787 24.0568 9.85866Z" fill="#8152DE"/>
    <path d="M14.0002 15.7035C16.0298 15.7035 17.6752 14.0582 17.6752 12.0285C17.6752 9.99887 16.0298 8.35352 14.0002 8.35352C11.9705 8.35352 10.3252 9.99887 10.3252 12.0285C10.3252 14.0582 11.9705 15.7035 14.0002 15.7035Z" fill="#8152DE"/>
</svg>
