<svg width="24" height="24" viewBox="0 0 24 24" fill="none" xmlns="http://www.w3.org/2000/svg">
    <path d="M12 1.75C14.5029 1.75023 16.5576 3.72671 16.6836 6.19922L16.6895 6.44043C16.6793 8.98325 14.6907 11.0387 12.1738 11.1201H12.1123C12.0429 11.1118 11.972 11.1138 11.9053 11.1191C9.27725 11.0326 7.30979 8.97391 7.30957 6.44043C7.30957 3.85657 9.41614 1.75 12 1.75ZM12 2.25C9.69386 2.25 7.80957 4.13429 7.80957 6.44043C7.80979 8.70973 9.58314 10.5406 11.8418 10.6201L11.9004 10.6221L11.9434 10.6123C11.9537 10.6118 11.9692 10.6123 11.9893 10.6123C12.0337 10.6123 12.0891 10.6141 12.1416 10.6182L12.1719 10.6211L12.2021 10.6191C14.4307 10.5168 16.1781 8.68606 16.1895 6.44238V6.44043C16.1895 4.13443 14.3059 2.25023 12 2.25Z" fill="#F7F8FA" stroke="#3E4B5E"/>
    <path d="M12.1696 22.55C10.2096 22.55 8.23961 22.05 6.74961 21.05C5.35961 20.13 4.59961 18.87 4.59961 17.5C4.59961 16.13 5.35961 14.86 6.74961 13.93C9.74961 11.94 14.6096 11.94 17.5896 13.93C18.9696 14.85 19.7396 16.11 19.7396 17.48C19.7396 18.85 18.9796 20.12 17.5896 21.05C16.0896 22.05 14.1296 22.55 12.1696 22.55ZM7.57961 15.19C6.61961 15.83 6.09961 16.65 6.09961 17.51C6.09961 18.36 6.62961 19.18 7.57961 19.81C10.0696 21.48 14.2696 21.48 16.7596 19.81C17.7196 19.17 18.2396 18.35 18.2396 17.49C18.2396 16.64 17.7096 15.82 16.7596 15.19C14.2696 13.53 10.0696 13.53 7.57961 15.19Z" fill="#3E4B5E"/>
</svg>
