<svg width="20" height="20" viewBox="0 0 20 20" fill="none" xmlns="http://www.w3.org/2000/svg">
    <path d="M15 8.95835C14.6583 8.95835 14.375 8.67502 14.375 8.33335V6.66669C14.375 4.04169 13.6333 2.29169 10 2.29169C6.36667 2.29169 5.625 4.04169 5.625 6.66669V8.33335C5.625 8.67502 5.34167 8.95835 5 8.95835C4.65833 8.95835 4.375 8.67502 4.375 8.33335V6.66669C4.375 4.25002 4.95833 1.04169 10 1.04169C15.0417 1.04169 15.625 4.25002 15.625 6.66669V8.33335C15.625 8.67502 15.3417 8.95835 15 8.95835Z" fill="black"/>
    <path d="M10 16.0417C8.50833 16.0417 7.29167 14.825 7.29167 13.3333C7.29167 11.8417 8.50833 10.625 10 10.625C11.4917 10.625 12.7083 11.8417 12.7083 13.3333C12.7083 14.825 11.4917 16.0417 10 16.0417ZM10 11.875C9.2 11.875 8.54167 12.5333 8.54167 13.3333C8.54167 14.1333 9.2 14.7917 10 14.7917C10.8 14.7917 11.4583 14.1333 11.4583 13.3333C11.4583 12.5333 10.8 11.875 10 11.875Z" fill="#292D32"/>
    <path d="M14.1667 18.9583H5.83333C2.15833 18.9583 1.04167 17.8416 1.04167 14.1666V12.5C1.04167 8.82498 2.15833 7.70831 5.83333 7.70831H14.1667C17.8417 7.70831 18.9583 8.82498 18.9583 12.5V14.1666C18.9583 17.8416 17.8417 18.9583 14.1667 18.9583ZM5.83333 8.95831C2.85 8.95831 2.29167 9.52498 2.29167 12.5V14.1666C2.29167 17.1416 2.85 17.7083 5.83333 17.7083H14.1667C17.15 17.7083 17.7083 17.1416 17.7083 14.1666V12.5C17.7083 9.52498 17.15 8.95831 14.1667 8.95831H5.83333Z" fill="black"/>
</svg>
