<svg width="38" height="38" viewBox="0 0 38 38" fill="none" xmlns="http://www.w3.org/2000/svg">
<path opacity="0.4" d="M17.3533 3.26165L8.64502 6.52332C6.98252 7.15665 5.62085 9.11999 5.62085 10.9092V23.7342C5.62085 25.0167 6.46002 26.7108 7.48918 27.4708L16.1975 33.9783C17.7333 35.1342 20.2508 35.1342 21.7867 33.9783L30.495 27.4708C31.5242 26.695 32.3634 25.0167 32.3634 23.7342V10.9092C32.3634 9.13582 31.0017 7.15665 29.3392 6.53915L20.6308 3.27748C19.7442 2.92915 18.2558 2.92915 17.3533 3.26165Z" fill="#8152DE"/>
<path d="M16.8783 22.5308C16.5775 22.5308 16.2767 22.42 16.0392 22.1825L13.49 19.6333C13.0308 19.1742 13.0308 18.4142 13.49 17.955C13.9492 17.4958 14.7092 17.4958 15.1683 17.955L16.8783 19.665L22.8475 13.6958C23.3067 13.2367 24.0667 13.2367 24.5258 13.6958C24.985 14.155 24.985 14.915 24.5258 15.3742L17.7175 22.1825C17.48 22.42 17.1792 22.5308 16.8783 22.5308Z" fill="#8152DE"/>
</svg>
